<svg width="11" height="11" viewBox="0 0 11 11" fill="none" xmlns="http://www.w3.org/2000/svg">
<path d="M5.83008 1.05005C7.16008 1.05005 7.31998 1.05008 7.84998 1.08008C8.33998 1.10008 8.60003 1.18012 8.78003 1.25012C9.01003 1.34012 9.17998 1.45012 9.34998 1.62012C9.51998 1.79012 9.62997 1.96006 9.71997 2.19006C9.78997 2.37006 9.87001 2.63012 9.89001 3.12012C9.91002 3.65012 9.92004 3.80001 9.92004 5.14001C9.92004 6.48001 9.92001 6.63003 9.89001 7.16003C9.87001 7.65003 9.78997 7.91009 9.71997 8.09009C9.62997 8.32009 9.51998 8.49003 9.34998 8.66003C9.17998 8.83003 9.01003 8.94003 8.78003 9.03003C8.60003 9.10003 8.33998 9.18007 7.84998 9.20007C7.31998 9.22007 7.17008 9.2301 5.83008 9.2301C4.49008 9.2301 4.34006 9.23007 3.81006 9.20007C3.32006 9.18007 3.06 9.10003 2.88 9.03003C2.65 8.94003 2.48006 8.83003 2.31006 8.66003C2.14006 8.49003 2.03006 8.32009 1.94006 8.09009C1.87006 7.91009 1.79002 7.65003 1.77002 7.16003C1.75002 6.63003 1.73999 6.48001 1.73999 5.14001C1.73999 3.80001 1.74002 3.65012 1.77002 3.12012C1.79002 2.63012 1.87006 2.37006 1.94006 2.19006C2.03006 1.96006 2.14006 1.79012 2.31006 1.62012C2.48006 1.45012 2.65 1.34012 2.88 1.25012C3.06 1.18012 3.32006 1.10008 3.81006 1.08008C4.34006 1.06008 4.49008 1.05005 5.83008 1.05005ZM5.83008 0.150024C4.47008 0.150024 4.30002 0.150054 3.77002 0.180054C3.24002 0.200054 2.88006 0.290034 2.56006 0.410034C2.23006 0.540034 1.95005 0.710112 1.68005 0.990112C1.40005 1.27011 1.22998 1.55013 1.09998 1.88013C0.979976 2.20013 0.889995 2.56009 0.869995 3.09009C0.849995 3.62009 0.839966 3.79002 0.839966 5.15002C0.839966 6.51002 0.839995 6.68008 0.869995 7.21008C0.889995 7.74008 0.979976 8.10004 1.09998 8.42004C1.22998 8.75004 1.40005 9.03005 1.68005 9.30005C1.96005 9.57005 2.24006 9.75013 2.56006 9.88013C2.88006 10.0001 3.24002 10.0901 3.77002 10.1101C4.30002 10.1301 4.47008 10.14 5.83008 10.14C7.19008 10.14 7.36001 10.1401 7.89001 10.1101C8.42001 10.0901 8.77998 10.0001 9.09998 9.88013C9.42998 9.75013 9.70999 9.58005 9.98999 9.30005C10.27 9.02005 10.4401 8.74004 10.5701 8.42004C10.6901 8.10004 10.78 7.74008 10.8 7.21008C10.82 6.68008 10.8301 6.51002 10.8301 5.15002C10.8301 3.79002 10.83 3.62009 10.8 3.09009C10.78 2.56009 10.6901 2.20013 10.5701 1.88013C10.4401 1.55013 10.27 1.27011 9.98999 0.990112C9.70999 0.710112 9.42998 0.540034 9.09998 0.410034C8.77998 0.290034 8.42001 0.200054 7.89001 0.180054C7.36001 0.160054 7.19008 0.150024 5.83008 0.150024Z" fill="white"/>
<path d="M5.83008 2.58008C4.41008 2.58008 3.26001 3.73002 3.26001 5.15002C3.26001 6.57002 4.41008 7.72009 5.83008 7.72009C7.25008 7.72009 8.40002 6.57002 8.40002 5.15002C8.40002 3.73002 7.25008 2.58008 5.83008 2.58008ZM5.83008 6.81006C4.91008 6.81006 4.16003 6.06001 4.16003 5.14001C4.16003 4.22001 4.91008 3.47009 5.83008 3.47009C6.75008 3.47009 7.5 4.22001 7.5 5.14001C7.5 6.06001 6.75008 6.81006 5.83008 6.81006Z" fill="white"/>
<path d="M9.08997 2.4801C9.08997 2.8101 8.81999 3.08008 8.48999 3.08008C8.15999 3.08008 7.89001 2.8101 7.89001 2.4801C7.89001 2.1501 8.15999 1.88013 8.48999 1.88013C8.81999 1.88013 9.08997 2.1501 9.08997 2.4801Z" fill="white"/>
</svg>
