<svg width="10" height="10" viewBox="0 0 10 10" fill="none" xmlns="http://www.w3.org/2000/svg">
<path d="M2.30005 3.16003H0.450073V9.12012H2.30005V3.16003Z" fill="white"/>
<path d="M1.35999 2.38013C1.95999 2.38013 2.45007 1.89003 2.45007 1.28003C2.45007 0.670029 1.95999 0.180054 1.35999 0.180054C0.759985 0.180054 0.27002 0.670029 0.27002 1.28003C0.27002 1.89003 0.759985 2.38013 1.35999 2.38013Z" fill="white"/>
<path d="M5.23999 5.99011C5.23999 5.15011 5.62999 4.65002 6.35999 4.65002C7.03999 4.65002 7.35999 5.13011 7.35999 5.99011V9.12012H9.20007V5.3501C9.20007 3.7501 8.29003 2.9801 7.03003 2.9801C5.77003 2.9801 5.22998 3.96008 5.22998 3.96008V3.16003H3.45996V9.12012H5.22998V5.99011H5.23999Z" fill="white"/>
</svg>
