<svg width="11" height="9" viewBox="0 0 11 9" fill="none" xmlns="http://www.w3.org/2000/svg">
<path d="M0.849976 7.47009C1.71998 8.03009 2.76 8.36011 3.87 8.36011C7.52999 8.36011 9.59997 5.27012 9.46997 2.50012C9.84997 2.22012 10.1901 1.8801 10.4501 1.4801C10.1001 1.6401 9.72007 1.74004 9.32007 1.79004C9.73007 1.55004 10.0401 1.16007 10.1901 0.700073C9.81006 0.930073 9.39006 1.09005 8.94006 1.18005C8.58006 0.800054 8.07 0.560059 7.5 0.560059C6.23 0.560059 5.29008 1.7501 5.58008 2.9801C3.94008 2.9001 2.49002 2.11004 1.52002 0.920044C1.00002 1.81004 1.25 2.97005 2.13 3.55005C1.81 3.54005 1.49999 3.45005 1.23999 3.30005C1.21999 4.21005 1.87007 5.07001 2.82007 5.26001C2.54007 5.34001 2.24005 5.35004 1.93005 5.29004C2.18005 6.07004 2.91002 6.64003 3.77002 6.66003C2.94002 7.31003 1.89998 7.6001 0.849976 7.4801V7.47009Z" fill="white"/>
</svg>
