<svg width="13" height="13" viewBox="0 0 13 13" fill="none" xmlns="http://www.w3.org/2000/svg">
<path fill-rule="evenodd" clip-rule="evenodd" d="M12.5601 6.52002C12.4801 3.44002 9.95008 0.980103 6.83008 0.980103C3.71008 0.980103 1.23998 3.39004 1.09998 6.42004C1.09998 6.50004 1.09998 6.59004 1.09998 6.67004C1.09998 7.75004 1.40004 8.75011 1.92004 9.61011L0.890015 12.66L4.06006 11.65C4.88006 12.1 5.83008 12.3601 6.83008 12.3601C10.0001 12.3601 12.5601 9.81004 12.5601 6.67004C12.5601 6.62004 12.5601 6.57003 12.5601 6.53003V6.52002ZM6.83008 11.4501C5.85008 11.4501 4.94005 11.16 4.18005 10.66L2.33008 11.2501L2.93005 9.47009C2.35005 8.68009 2.01001 7.71004 2.01001 6.67004C2.01001 6.51004 2.01003 6.36008 2.03003 6.21008C2.27003 3.79008 4.33008 1.89001 6.83008 1.89001C9.33008 1.89001 11.44 3.84005 11.63 6.30005C11.64 6.42005 11.65 6.55004 11.65 6.67004C11.65 9.31004 9.49008 11.4501 6.83008 11.4501Z" fill="white"/>
<path fill-rule="evenodd" clip-rule="evenodd" d="M9.45996 7.81006C9.31996 7.74006 8.63 7.40011 8.5 7.36011C8.37 7.31011 8.28005 7.29005 8.18005 7.43005C8.09005 7.57005 7.81998 7.88009 7.72998 7.97009C7.64998 8.06009 7.57004 8.07012 7.42004 8.00012C7.28004 7.93012 6.83004 7.79006 6.29004 7.31006C5.87004 6.94006 5.59001 6.4901 5.51001 6.3501C5.43001 6.2101 5.51007 6.14007 5.57007 6.07007C5.63007 6.01007 5.71003 5.91008 5.78003 5.83008C5.80003 5.81008 5.81008 5.78001 5.83008 5.76001C5.86008 5.71001 5.89004 5.66009 5.92004 5.59009C5.97004 5.50009 5.94003 5.4201 5.91003 5.3501C5.88003 5.2801 5.58998 4.59006 5.47998 4.31006C5.35998 4.03006 5.25003 4.08008 5.16003 4.08008C5.07003 4.08008 4.99001 4.07007 4.89001 4.07007C4.79001 4.07007 4.64001 4.10011 4.51001 4.24011C4.38001 4.38011 4.02002 4.72002 4.02002 5.40002C4.02002 5.56002 4.04997 5.72012 4.08997 5.87012C4.22997 6.36012 4.53997 6.77009 4.58997 6.84009C4.65997 6.93009 5.55999 8.39007 6.98999 8.95007C8.41999 9.51007 8.42005 9.32005 8.68005 9.30005C8.94005 9.28005 9.51 8.96001 9.63 8.64001C9.75 8.32001 9.74996 8.0401 9.70996 7.9801C9.67996 7.9201 9.58006 7.89007 9.44006 7.82007L9.45996 7.81006Z" fill="white"/>
</svg>
